<svg xmlns="http://www.w3.org/2000/svg" fill="none" viewBox="0 0 1608 528">
  <rect width="1600" height="520" x="4" y="4" fill="url(#a)" rx="68" />
  <rect width="1600" height="520" x="4" y="4" stroke="#000" stroke-width="8" rx="68" />
  <path fill="#FF90E8" stroke="#000" stroke-width="5"
    d="M1184 116c17.67 0 32-14.327 32-32 0-17.673-14.33-32-32-32s-32 14.327-32 32c0 17.673 14.33 32 32 32Z" />
  <path fill="#FFC900" stroke="#000" stroke-width="5"
    d="M1474 466c12.15 0 22-9.85 22-22s-9.85-22-22-22-22 9.85-22 22 9.85 22 22 22Z" />
  <path fill="#8B8BF5" stroke="#000" stroke-width="5"
    d="M1294 450c8.84 0 16-7.163 16-16s-7.16-16-16-16-16 7.163-16 16 7.16 16 16 16ZM1417.5 224c19.05 0 34.5-15.446 34.5-34.5 0-19.054-15.45-34.5-34.5-34.5s-34.5 15.446-34.5 34.5c0 19.054 15.45 34.5 34.5 34.5Z" />
  <path fill="#FFC900" stroke="#000" stroke-width="4"
    d="M964 76c6.627 0 12-5.373 12-12s-5.373-12-12-12-12 5.373-12 12 5.373 12 12 12Z" />
  <path fill="#FF90E8" stroke="#000" stroke-width="4"
    d="M976 485c5.523 0 10-4.477 10-10s-4.477-10-10-10-10 4.477-10 10 4.477 10 10 10Z" />
  <path fill="url(#b)" stroke="#000" stroke-width="10"
    d="M352 96H176c-44.183 0-80 35.817-80 80v176c0 44.183 35.817 80 80 80h176c44.183 0 80-35.817 80-80V176c0-44.183-35.817-80-80-80Z" />
  <path fill="#000" d="M190 170v188Z" />
  <path stroke="#000" stroke-linecap="round" stroke-width="38" d="M190 170v188" />
  <path fill="#000" d="M338 170v188Z" />
  <path stroke="#000" stroke-linecap="round" stroke-width="38" d="M338 170v188" />
  <path fill="#000" d="m190 170 148 188Z" />
  <path stroke="#000" stroke-linecap="round" stroke-linejoin="round" stroke-width="38" d="m190 170 148 188" />
  <path fill="#000" d="M190 170v188Z" />
  <path stroke="#8B8BF5" stroke-linecap="round" stroke-width="18" d="M190 170v188" />
  <path fill="#000" d="M338 170v188Z" />
  <path stroke="#FF90E8" stroke-linecap="round" stroke-width="18" d="M338 170v188" />
  <path fill="#000" d="m190 170 148 188Z" />
  <path stroke="#FFC900" stroke-linecap="round" stroke-linejoin="round" stroke-width="18" d="m190 170 148 188" />
  <path fill="#8B8BF5" stroke="#000" stroke-width="5"
    d="M190 185c8.284 0 15-6.716 15-15 0-8.284-6.716-15-15-15-8.284 0-15 6.716-15 15 0 8.284 6.716 15 15 15ZM190 373c8.284 0 15-6.716 15-15 0-8.284-6.716-15-15-15-8.284 0-15 6.716-15 15 0 8.284 6.716 15 15 15Z" />
  <path fill="#FF90E8" stroke="#000" stroke-width="5"
    d="M338 185c8.284 0 15-6.716 15-15 0-8.284-6.716-15-15-15-8.284 0-15 6.716-15 15 0 8.284 6.716 15 15 15ZM338 373c8.284 0 15-6.716 15-15 0-8.284-6.716-15-15-15-8.284 0-15 6.716-15 15 0 8.284 6.716 15 15 15Z" />
  <path fill="#FFC900" stroke="#000" stroke-width="5"
    d="M264 282c9.941 0 18-8.059 18-18s-8.059-18-18-18-18 8.059-18 18 8.059 18 18 18Z" />
  <path fill="#000"
    d="M586.524 132.455V211H572.18l-34.171-49.436h-.576V211h-16.606v-78.545h14.574l33.903 49.397h.69v-49.397h16.53ZM599.938 211v-58.909h16.338V211h-16.338Zm8.207-66.503c-2.429 0-4.513-.805-6.251-2.416-1.713-1.636-2.57-3.592-2.57-5.868 0-2.25.857-4.18 2.57-5.791 1.738-1.636 3.822-2.455 6.251-2.455 2.429 0 4.5.819 6.213 2.455 1.739 1.611 2.608 3.541 2.608 5.791 0 2.276-.869 4.232-2.608 5.868-1.713 1.611-3.784 2.416-6.213 2.416ZM629.364 211v-58.909h15.571v10.393h.69c1.227-3.451 3.273-6.174 6.136-8.169 2.864-1.994 6.29-2.991 10.279-2.991 4.04 0 7.478 1.01 10.317 3.03 2.838 1.994 4.73 4.704 5.676 8.13h.613c1.202-3.375 3.375-6.072 6.52-8.092 3.171-2.045 6.916-3.068 11.237-3.068 5.498 0 9.959 1.751 13.385 5.254 3.452 3.477 5.178 8.412 5.178 14.804V211h-16.3v-36.396c0-3.273-.869-5.728-2.608-7.364-1.738-1.636-3.912-2.454-6.52-2.454-2.966 0-5.279.946-6.941 2.838-1.662 1.866-2.493 4.333-2.493 7.402V211h-15.84v-36.741c0-2.89-.831-5.191-2.493-6.904-1.636-1.713-3.797-2.569-6.481-2.569-1.816 0-3.452.46-4.909 1.38-1.432.895-2.57 2.161-3.414 3.797-.843 1.611-1.265 3.503-1.265 5.676V211h-16.338Zm166.42-55.956c-.307-3.094-1.624-5.497-3.951-7.21-2.326-1.713-5.484-2.57-9.473-2.57-2.71 0-4.998.384-6.865 1.151-1.866.741-3.298 1.777-4.295 3.106-.972 1.33-1.457 2.838-1.457 4.526-.052 1.406.242 2.633.882 3.682.664 1.048 1.572 1.956 2.723 2.723 1.15.741 2.48 1.393 3.988 1.956 1.509.537 3.12.997 4.833 1.38l7.056 1.688c3.427.767 6.572 1.79 9.435 3.068 2.864 1.278 5.344 2.851 7.44 4.717a19.603 19.603 0 0 1 4.871 6.597c1.176 2.531 1.777 5.433 1.803 8.706-.026 4.807-1.253 8.974-3.682 12.503-2.403 3.503-5.881 6.226-10.432 8.169-4.525 1.917-9.984 2.876-16.376 2.876-6.341 0-11.864-.971-16.568-2.915-4.679-1.943-8.336-4.819-10.969-8.629-2.608-3.835-3.976-8.578-4.104-14.229h16.07c.179 2.634.933 4.833 2.262 6.597 1.356 1.739 3.158 3.055 5.408 3.95 2.276.87 4.845 1.304 7.709 1.304 2.812 0 5.254-.409 7.325-1.227 2.097-.818 3.72-1.956 4.871-3.413 1.151-1.458 1.726-3.132 1.726-5.024 0-1.765-.524-3.248-1.573-4.449-1.022-1.202-2.531-2.225-4.525-3.068-1.969-.844-4.385-1.611-7.249-2.302l-8.552-2.147c-6.622-1.611-11.851-4.13-15.686-7.556-3.836-3.426-5.74-8.041-5.715-13.845-.025-4.756 1.24-8.91 3.797-12.464 2.582-3.554 6.124-6.329 10.624-8.323 4.5-1.994 9.613-2.991 15.34-2.991 5.83 0 10.918.997 15.265 2.991 4.372 1.994 7.772 4.769 10.201 8.323 2.429 3.554 3.682 7.67 3.759 12.349h-15.916Zm59.187-2.953v12.273h-35.476v-12.273h35.476Zm-27.422-14.114h16.338v54.921c0 1.508.23 2.684.69 3.528.461.818 1.1 1.394 1.918 1.726.844.332 1.815.499 2.915.499.767 0 1.534-.064 2.301-.192.767-.154 1.355-.269 1.764-.345l2.57 12.157c-.818.256-1.969.55-3.452.882-1.483.358-3.285.576-5.408.652-3.937.154-7.389-.37-10.355-1.572-2.94-1.202-5.228-3.068-6.865-5.599-1.636-2.532-2.442-5.728-2.416-9.589v-57.068Zm54.863 74.135c-3.759 0-7.108-.652-10.048-1.956-2.941-1.329-5.267-3.285-6.98-5.868-1.688-2.608-2.532-5.855-2.532-9.741 0-3.273.601-6.021 1.803-8.246 1.202-2.224 2.838-4.014 4.909-5.369 2.071-1.355 4.423-2.378 7.057-3.068a53.797 53.797 0 0 1 8.361-1.458c3.426-.358 6.187-.69 8.284-.997 2.096-.332 3.618-.818 4.564-1.457.946-.64 1.419-1.586 1.419-2.838v-.23c0-2.429-.767-4.309-2.302-5.638-1.508-1.33-3.656-1.995-6.443-1.995-2.94 0-5.28.652-7.018 1.956-1.739 1.279-2.889 2.89-3.452 4.833l-15.111-1.228c.767-3.579 2.276-6.673 4.526-9.281 2.25-2.633 5.152-4.653 8.706-6.059 3.579-1.432 7.721-2.148 12.426-2.148 3.273 0 6.405.383 9.396 1.15 3.017.767 5.689 1.956 8.016 3.567a17.34 17.34 0 0 1 5.561 6.213c1.355 2.506 2.033 5.51 2.033 9.013V211h-15.495v-8.169h-.46a16.64 16.64 0 0 1-3.797 4.871c-1.585 1.38-3.49 2.467-5.714 3.26-2.225.767-4.794 1.15-7.709 1.15Zm4.679-11.275c2.403 0 4.525-.473 6.366-1.419 1.841-.972 3.286-2.276 4.334-3.912 1.048-1.637 1.573-3.49 1.573-5.561v-6.252c-.512.333-1.215.639-2.11.921-.869.255-1.853.498-2.953.728a145.88 145.88 0 0 1-3.298.576c-1.1.153-2.097.294-2.992.421-1.917.282-3.592.729-5.024 1.343-1.432.613-2.544 1.444-3.336 2.493-.793 1.022-1.189 2.301-1.189 3.835 0 2.224.805 3.925 2.416 5.101 1.636 1.15 3.707 1.726 6.213 1.726Zm57.509-68.382V211h-16.338v-78.545H944.6Zm27.892 61.593.038-19.598h2.378l18.869-22.359h18.753l-25.349 29.608h-3.874l-10.815 12.349ZM957.688 211v-78.545h16.338V211h-16.338Zm36.818 0-17.335-25.658 10.892-11.544L1013.64 211h-19.134Zm50.464 1.151c-6.06 0-11.28-1.228-15.65-3.682-4.35-2.48-7.7-5.983-10.05-10.509-2.35-4.551-3.53-9.933-3.53-16.146 0-6.06 1.18-11.378 3.53-15.955 2.35-4.576 5.67-8.143 9.94-10.7 4.29-2.557 9.33-3.835 15.11-3.835 3.88 0 7.5.626 10.85 1.879 3.37 1.227 6.32 3.081 8.82 5.561 2.53 2.48 4.5 5.6 5.91 9.358 1.4 3.733 2.11 8.105 2.11 13.117v4.487h-49.75v-10.125h34.37c0-2.352-.51-4.436-1.54-6.252a10.992 10.992 0 0 0-4.25-4.257c-1.79-1.048-3.88-1.572-6.26-1.572-2.48 0-4.67.575-6.59 1.726a12.087 12.087 0 0 0-4.45 4.564c-1.07 1.892-1.62 4.001-1.65 6.328v9.626c0 2.915.54 5.433 1.61 7.556 1.1 2.122 2.65 3.758 4.64 4.909 2 1.15 4.36 1.726 7.1 1.726 1.81 0 3.47-.256 4.98-.767 1.51-.512 2.8-1.279 3.88-2.302 1.07-1.022 1.89-2.275 2.45-3.758l15.11.997c-.77 3.631-2.34 6.801-4.72 9.511-2.35 2.685-5.39 4.782-9.12 6.29-3.71 1.483-7.99 2.225-12.85 2.225Zm37.7-1.151v-58.909h15.84v10.278h.61c1.08-3.656 2.88-6.417 5.41-8.284 2.53-1.892 5.45-2.838 8.74-2.838.82 0 1.7.051 2.65.154.95.102 1.78.242 2.49.421v14.498c-.76-.231-1.83-.435-3.18-.614-1.36-.179-2.6-.268-3.72-.268-2.4 0-4.55.524-6.44 1.572a11.56 11.56 0 0 0-4.45 4.295c-1.08 1.841-1.61 3.963-1.61 6.367V211h-16.34Z" />
  <path fill="#322D50"
    d="M518.781 251h8.344l8.813 21.5h.375l8.812-21.5h8.344v32h-6.563v-20.828h-.265l-8.282 20.672h-4.468l-8.282-20.75h-.265V283h-6.563v-32Zm46.981 32.453c-1.532 0-2.896-.265-4.094-.797-1.198-.541-2.146-1.338-2.844-2.39-.687-1.063-1.031-2.386-1.031-3.969 0-1.333.245-2.453.734-3.36a5.956 5.956 0 0 1 2-2.187 9.698 9.698 0 0 1 2.875-1.25 22.007 22.007 0 0 1 3.407-.594 87.015 87.015 0 0 0 3.375-.406c.854-.135 1.474-.333 1.859-.594.385-.26.578-.646.578-1.156v-.094c0-.989-.312-1.755-.937-2.297-.615-.541-1.49-.812-2.625-.812-1.198 0-2.151.265-2.86.797-.708.521-1.177 1.177-1.406 1.968l-6.156-.5c.312-1.458.927-2.718 1.843-3.781.917-1.073 2.099-1.896 3.547-2.469 1.459-.583 3.146-.874 5.063-.874 1.333 0 2.609.156 3.828.468 1.229.313 2.318.797 3.266 1.453a7.065 7.065 0 0 1 2.265 2.532c.552 1.02.828 2.244.828 3.671V283h-6.312v-3.328h-.188a6.764 6.764 0 0 1-1.547 1.984c-.645.563-1.421 1.005-2.328 1.328-.906.313-1.953.469-3.14.469Zm1.906-4.594c.979 0 1.844-.192 2.594-.578.75-.396 1.338-.927 1.765-1.593.427-.667.641-1.422.641-2.266v-2.547c-.208.135-.495.26-.859.375-.355.104-.756.203-1.204.297-.447.083-.895.161-1.343.234l-1.219.172c-.781.115-1.464.297-2.047.547-.583.25-1.036.589-1.359 1.016-.323.416-.485.937-.485 1.562 0 .906.328 1.599.985 2.078.666.469 1.51.703 2.531.703Zm22.805-2.765.015-7.985h.969l7.688-9.109h7.64l-10.328 12.063h-1.578l-4.406 5.031ZM584.441 283v-32h6.657v32h-6.657Zm15 0-7.062-10.453 4.437-4.703L607.238 283h-7.797Zm10.61 0v-24h6.656v24h-6.656Zm3.344-27.094c-.99 0-1.839-.328-2.547-.984-.698-.667-1.047-1.464-1.047-2.391 0-.916.349-1.703 1.047-2.359.708-.667 1.557-1 2.547-1 .989 0 1.833.333 2.531 1 .708.656 1.062 1.443 1.062 2.359 0 .927-.354 1.724-1.062 2.391-.698.656-1.542.984-2.531.984Zm15.3 13.219V283h-6.656v-24h6.344v4.234h.281a6.695 6.695 0 0 1 2.672-3.312c1.25-.823 2.766-1.234 4.547-1.234 1.666 0 3.12.364 4.359 1.093 1.24.729 2.203 1.771 2.891 3.125.687 1.344 1.031 2.948 1.031 4.813V283h-6.656v-14.094c.01-1.469-.365-2.614-1.125-3.437-.761-.834-1.807-1.25-3.141-1.25-.896 0-1.687.192-2.375.578-.677.385-1.208.948-1.594 1.687-.375.73-.567 1.61-.578 2.641Zm31.528 23.375c-2.157 0-4.006-.297-5.547-.891-1.531-.583-2.75-1.38-3.656-2.39-.907-1.011-1.495-2.146-1.766-3.407l6.156-.828c.188.48.485.927.891 1.344.406.417.942.75 1.609 1 .677.261 1.5.391 2.469.391 1.448 0 2.641-.354 3.578-1.063.948-.698 1.422-1.87 1.422-3.515v-4.391h-.281c-.292.667-.73 1.297-1.313 1.891-.583.593-1.333 1.078-2.25 1.453s-2.01.562-3.281.562c-1.802 0-3.443-.416-4.922-1.25-1.469-.844-2.641-2.13-3.516-3.859-.864-1.74-1.296-3.938-1.296-6.594 0-2.719.442-4.989 1.328-6.812.885-1.823 2.062-3.188 3.531-4.094a9.127 9.127 0 0 1 4.859-1.359c1.344 0 2.469.229 3.375.687.907.448 1.636 1.01 2.188 1.687.562.667.995 1.323 1.297 1.969h.25V259h6.609v24.234c0 2.042-.5 3.75-1.5 5.125s-2.385 2.407-4.156 3.094c-1.761.698-3.787 1.047-6.078 1.047Zm.14-14.844c1.073 0 1.979-.265 2.719-.797.75-.541 1.323-1.312 1.719-2.312.406-1.011.609-2.219.609-3.625 0-1.406-.198-2.625-.594-3.656-.395-1.042-.968-1.849-1.718-2.422-.75-.573-1.662-.86-2.735-.86-1.093 0-2.015.297-2.765.891-.75.583-1.318 1.396-1.703 2.437-.386 1.042-.579 2.245-.579 3.61 0 1.385.193 2.583.579 3.594.395 1 .963 1.776 1.703 2.328.75.541 1.672.812 2.765.812ZM687.562 283v-32h6.657v12.031h.203c.292-.646.713-1.302 1.266-1.969.562-.677 1.291-1.239 2.187-1.687.906-.458 2.031-.687 3.375-.687 1.75 0 3.365.458 4.844 1.375 1.479.906 2.661 2.276 3.547 4.109.885 1.823 1.328 4.109 1.328 6.859 0 2.677-.433 4.938-1.297 6.781-.854 1.834-2.021 3.224-3.5 4.172-1.469.938-3.115 1.407-4.938 1.407-1.291 0-2.39-.214-3.296-.641-.896-.427-1.631-.964-2.204-1.609-.573-.657-1.01-1.318-1.312-1.985h-.297V283h-6.563Zm6.516-12c0 1.427.198 2.672.594 3.734.396 1.063.969 1.891 1.719 2.485.75.583 1.661.875 2.734.875 1.083 0 2-.297 2.75-.891.75-.604 1.318-1.437 1.703-2.5.396-1.073.594-2.307.594-3.703 0-1.385-.193-2.604-.578-3.656-.386-1.052-.953-1.875-1.703-2.469-.75-.594-1.672-.891-2.766-.891-1.083 0-2 .287-2.75.86-.74.573-1.307 1.385-1.703 2.437-.396 1.052-.594 2.292-.594 3.719Zm27.988-20v32h-6.656v-32h6.656Zm16.176 32.469c-2.427 0-4.526-.516-6.297-1.547-1.76-1.042-3.119-2.49-4.078-4.344-.958-1.864-1.437-4.026-1.437-6.484 0-2.479.479-4.646 1.437-6.5.959-1.865 2.318-3.313 4.078-4.344 1.771-1.042 3.87-1.562 6.297-1.562 2.427 0 4.521.52 6.281 1.562 1.771 1.031 3.136 2.479 4.094 4.344.959 1.854 1.438 4.021 1.438 6.5 0 2.458-.479 4.62-1.438 6.484-.958 1.854-2.323 3.302-4.094 4.344-1.76 1.031-3.854 1.547-6.281 1.547Zm.031-5.157c1.105 0 2.026-.312 2.766-.937.74-.635 1.297-1.5 1.672-2.594.385-1.094.578-2.338.578-3.734s-.193-2.641-.578-3.735c-.375-1.093-.932-1.958-1.672-2.593-.74-.636-1.661-.953-2.766-.953-1.114 0-2.052.317-2.812.953-.75.635-1.318 1.5-1.703 2.593-.375 1.094-.563 2.339-.563 3.735s.188 2.64.563 3.734c.385 1.094.953 1.959 1.703 2.594.76.625 1.698.937 2.812.937Zm26.954 5.157c-2.459 0-4.573-.521-6.344-1.563-1.761-1.052-3.115-2.51-4.063-4.375-.937-1.864-1.406-4.01-1.406-6.437 0-2.459.474-4.615 1.422-6.469.958-1.865 2.318-3.318 4.078-4.359 1.76-1.052 3.854-1.578 6.281-1.578 2.094 0 3.927.38 5.5 1.14 1.573.761 2.818 1.828 3.735 3.203.916 1.375 1.422 2.99 1.515 4.844h-6.281c-.177-1.198-.646-2.161-1.406-2.891-.75-.739-1.735-1.109-2.953-1.109-1.032 0-1.933.281-2.703.844-.761.552-1.355 1.359-1.782 2.422-.427 1.062-.64 2.349-.64 3.859 0 1.531.208 2.833.625 3.906.427 1.073 1.026 1.891 1.797 2.453.77.563 1.671.844 2.703.844.76 0 1.442-.156 2.047-.469a3.95 3.95 0 0 0 1.515-1.359c.406-.604.672-1.328.797-2.172h6.281c-.104 1.833-.604 3.448-1.5 4.844-.885 1.385-2.109 2.469-3.672 3.25-1.562.781-3.411 1.172-5.546 1.172Zm21.011-7.375.016-7.985h.969L794.91 259h7.641l-10.328 12.063h-1.578l-4.407 5.031ZM780.207 283v-32h6.656v32h-6.656Zm15 0-7.062-10.453 4.437-4.703L803.004 283h-7.797Zm20.465.469c-2.458 0-4.573-.521-6.344-1.563-1.76-1.052-3.114-2.51-4.062-4.375-.938-1.864-1.407-4.01-1.407-6.437 0-2.459.474-4.615 1.422-6.469.959-1.865 2.318-3.318 4.078-4.359 1.761-1.052 3.855-1.578 6.282-1.578 2.093 0 3.927.38 5.5 1.14 1.573.761 2.817 1.828 3.734 3.203.917 1.375 1.422 2.99 1.516 4.844h-6.282c-.177-1.198-.645-2.161-1.406-2.891-.75-.739-1.734-1.109-2.953-1.109-1.031 0-1.932.281-2.703.844-.761.552-1.354 1.359-1.781 2.422-.427 1.062-.641 2.349-.641 3.859 0 1.531.208 2.833.625 3.906.427 1.073 1.026 1.891 1.797 2.453.771.563 1.672.844 2.703.844.76 0 1.443-.156 2.047-.469a3.943 3.943 0 0 0 1.515-1.359c.407-.604.672-1.328.797-2.172h6.282c-.105 1.833-.605 3.448-1.5 4.844-.886 1.385-2.11 2.469-3.672 3.25-1.563.781-3.412 1.172-5.547 1.172Zm21.637-14.344V283h-6.657v-32h6.469v12.234h.281c.542-1.416 1.417-2.526 2.625-3.328 1.209-.812 2.724-1.218 4.547-1.218 1.667 0 3.12.364 4.36 1.093 1.25.719 2.218 1.755 2.906 3.11.698 1.343 1.042 2.953 1.031 4.828V283h-6.656v-14.094c.01-1.479-.365-2.63-1.125-3.453-.75-.823-1.802-1.234-3.156-1.234-.907 0-1.709.192-2.407.578-.687.385-1.229.948-1.625 1.687-.385.73-.583 1.61-.593 2.641Zm27.644 14.328c-1.531 0-2.896-.265-4.094-.797-1.198-.541-2.145-1.338-2.843-2.39-.688-1.063-1.032-2.386-1.032-3.969 0-1.333.245-2.453.735-3.36a5.939 5.939 0 0 1 2-2.187 9.698 9.698 0 0 1 2.875-1.25 21.994 21.994 0 0 1 3.406-.594 86.532 86.532 0 0 0 3.375-.406c.854-.135 1.474-.333 1.859-.594.386-.26.579-.646.579-1.156v-.094c0-.989-.313-1.755-.938-2.297-.615-.541-1.49-.812-2.625-.812-1.198 0-2.151.265-2.859.797-.709.521-1.177 1.177-1.407 1.968l-6.156-.5c.313-1.458.927-2.718 1.844-3.781.917-1.073 2.099-1.896 3.547-2.469 1.458-.583 3.146-.874 5.062-.874 1.334 0 2.61.156 3.828.468 1.23.313 2.318.797 3.266 1.453a7.068 7.068 0 0 1 2.266 2.532c.552 1.02.828 2.244.828 3.671V283h-6.313v-3.328h-.187a6.78 6.78 0 0 1-1.547 1.984c-.646.563-1.422 1.005-2.328 1.328-.906.313-1.953.469-3.141.469Zm1.906-4.594c.98 0 1.844-.192 2.594-.578.75-.396 1.339-.927 1.766-1.593.427-.667.64-1.422.64-2.266v-2.547c-.208.135-.494.26-.859.375-.354.104-.755.203-1.203.297-.448.083-.896.161-1.344.234l-1.219.172c-.781.115-1.463.297-2.046.547-.584.25-1.037.589-1.36 1.016-.323.416-.484.937-.484 1.562 0 .906.328 1.599.984 2.078.667.469 1.511.703 2.531.703ZM883.633 283v-24h6.656v24h-6.656Zm3.344-27.094c-.99 0-1.839-.328-2.547-.984-.698-.667-1.047-1.464-1.047-2.391 0-.916.349-1.703 1.047-2.359.708-.667 1.557-1 2.547-1 .989 0 1.833.333 2.531 1 .708.656 1.062 1.443 1.062 2.359 0 .927-.354 1.724-1.062 2.391-.698.656-1.542.984-2.531.984Zm15.3 13.219V283h-6.656v-24h6.344v4.234h.281a6.695 6.695 0 0 1 2.672-3.312c1.25-.823 2.766-1.234 4.547-1.234 1.667 0 3.12.364 4.359 1.093 1.24.729 2.203 1.771 2.891 3.125.687 1.344 1.031 2.948 1.031 4.813V283h-6.656v-14.094c.01-1.469-.365-2.614-1.125-3.437-.761-.834-1.807-1.25-3.141-1.25-.896 0-1.687.192-2.375.578-.677.385-1.208.948-1.594 1.687-.375.73-.567 1.61-.578 2.641Zm41.711 23.375c-2.156 0-4.005-.297-5.547-.891-1.531-.583-2.75-1.38-3.656-2.39-.906-1.011-1.495-2.146-1.765-3.407l6.156-.828c.187.48.484.927.89 1.344.407.417.943.75 1.61 1 .677.261 1.5.391 2.469.391 1.447 0 2.64-.354 3.578-1.063.948-.698 1.422-1.87 1.422-3.515v-4.391h-.282c-.291.667-.729 1.297-1.312 1.891-.584.593-1.334 1.078-2.25 1.453-.917.375-2.011.562-3.281.562-1.803 0-3.443-.416-4.922-1.25-1.469-.844-2.641-2.13-3.516-3.859-.865-1.74-1.297-3.938-1.297-6.594 0-2.719.443-4.989 1.328-6.812.886-1.823 2.063-3.188 3.532-4.094a9.124 9.124 0 0 1 4.859-1.359c1.344 0 2.469.229 3.375.687.906.448 1.635 1.01 2.187 1.687.563.667.995 1.323 1.297 1.969h.25V259h6.61v24.234c0 2.042-.5 3.75-1.5 5.125s-2.386 2.407-4.157 3.094c-1.76.698-3.786 1.047-6.078 1.047Zm.141-14.844c1.073 0 1.979-.265 2.719-.797.75-.541 1.323-1.312 1.718-2.312.407-1.011.61-2.219.61-3.625 0-1.406-.198-2.625-.594-3.656-.396-1.042-.969-1.849-1.719-2.422-.75-.573-1.661-.86-2.734-.86-1.094 0-2.016.297-2.766.891-.75.583-1.317 1.396-1.703 2.437-.385 1.042-.578 2.245-.578 3.61 0 1.385.193 2.583.578 3.594.396 1 .964 1.776 1.703 2.328.75.541 1.672.812 2.766.812Zm27.734 5.813c-2.427 0-4.526-.516-6.297-1.547-1.76-1.042-3.119-2.49-4.078-4.344-.958-1.864-1.437-4.026-1.437-6.484 0-2.479.479-4.646 1.437-6.5.959-1.865 2.318-3.313 4.078-4.344 1.771-1.042 3.87-1.562 6.297-1.562 2.427 0 4.521.52 6.282 1.562 1.77 1.031 3.135 2.479 4.093 4.344.959 1.854 1.438 4.021 1.438 6.5 0 2.458-.479 4.62-1.438 6.484-.958 1.854-2.323 3.302-4.093 4.344-1.761 1.031-3.855 1.547-6.282 1.547Zm.032-5.157c1.104 0 2.026-.312 2.765-.937.74-.635 1.297-1.5 1.672-2.594.385-1.094.578-2.338.578-3.734s-.193-2.641-.578-3.735c-.375-1.093-.932-1.958-1.672-2.593-.739-.636-1.661-.953-2.765-.953-1.115 0-2.053.317-2.813.953-.75.635-1.318 1.5-1.703 2.593-.375 1.094-.563 2.339-.563 3.735s.188 2.64.563 3.734c.385 1.094.953 1.959 1.703 2.594.76.625 1.698.937 2.813.937Zm36.075-12.468-6.09.375c-.11-.521-.33-.99-.67-1.407-.35-.427-.8-.765-1.362-1.015-.552-.261-1.214-.391-1.985-.391-1.031 0-1.901.219-2.609.656-.708.428-1.063 1-1.063 1.719 0 .573.23 1.058.688 1.453.458.396 1.245.714 2.359.953l4.342.875c2.34.48 4.07 1.25 5.22 2.313 1.15 1.062 1.72 2.458 1.72 4.187 0 1.573-.46 2.954-1.39 4.141-.92 1.188-2.18 2.115-3.78 2.781-1.6.657-3.435.985-5.518.985-3.177 0-5.708-.662-7.594-1.985-1.875-1.333-2.974-3.145-3.297-5.437l6.547-.344c.198.969.677 1.708 1.438 2.219.76.5 1.734.75 2.922.75 1.166 0 2.104-.224 2.812-.672.72-.458 1.08-1.047 1.09-1.766-.01-.604-.26-1.099-.76-1.484-.5-.396-1.273-.698-2.314-.906l-4.156-.828c-2.344-.469-4.089-1.282-5.235-2.438-1.135-1.156-1.703-2.63-1.703-4.422 0-1.541.417-2.87 1.25-3.984.844-1.115 2.026-1.974 3.547-2.578 1.531-.604 3.323-.906 5.375-.906 3.036 0 5.416.64 7.156 1.921 1.75 1.282 2.77 3.026 3.06 5.235Zm24.71 0-6.09.375c-.11-.521-.33-.99-.68-1.407-.34-.427-.79-.765-1.36-1.015-.55-.261-1.21-.391-1.98-.391-1.03 0-1.9.219-2.61.656-.71.428-1.06 1-1.06 1.719 0 .573.23 1.058.69 1.453.45.396 1.24.714 2.36.953l4.34.875c2.33.48 4.07 1.25 5.22 2.313 1.14 1.062 1.72 2.458 1.72 4.187 0 1.573-.47 2.954-1.39 4.141-.92 1.188-2.18 2.115-3.79 2.781-1.59.657-3.43.985-5.51.985-3.18 0-5.71-.662-7.59-1.985-1.88-1.333-2.98-3.145-3.3-5.437l6.55-.344c.19.969.67 1.708 1.43 2.219.76.5 1.74.75 2.92.75 1.17 0 2.11-.224 2.82-.672.72-.458 1.08-1.047 1.09-1.766-.01-.604-.26-1.099-.76-1.484-.5-.396-1.28-.698-2.32-.906l-4.15-.828c-2.35-.469-4.09-1.282-5.24-2.438-1.13-1.156-1.7-2.63-1.7-4.422 0-1.541.42-2.87 1.25-3.984.84-1.115 2.03-1.974 3.55-2.578 1.53-.604 3.32-.906 5.37-.906 3.03 0 5.42.64 7.16 1.921 1.75 1.282 2.77 3.026 3.06 5.235Zm4.74 17.156v-24h6.65v24h-6.65Zm3.34-27.094c-.99 0-1.84-.328-2.55-.984-.69-.667-1.04-1.464-1.04-2.391 0-.916.35-1.703 1.04-2.359.71-.667 1.56-1 2.55-1 .99 0 1.84.333 2.53 1 .71.656 1.07 1.443 1.07 2.359 0 .927-.36 1.724-1.07 2.391-.69.656-1.54.984-2.53.984Zm8.65 36.094v-33h6.56v4.031h.3c.29-.646.71-1.302 1.26-1.969.56-.677 1.29-1.239 2.19-1.687.91-.458 2.03-.687 3.37-.687 1.75 0 3.37.458 4.85 1.375 1.48.906 2.66 2.276 3.54 4.109.89 1.823 1.33 4.109 1.33 6.859 0 2.677-.43 4.938-1.29 6.781-.86 1.834-2.03 3.224-3.5 4.172-1.47.938-3.12 1.407-4.94 1.407-1.29 0-2.39-.214-3.3-.641-.89-.427-1.63-.964-2.2-1.609-.57-.657-1.01-1.318-1.31-1.985h-.21V292h-6.65Zm6.51-21c0 1.427.2 2.672.6 3.734.39 1.063.96 1.891 1.71 2.485.75.583 1.67.875 2.74.875 1.08 0 2-.297 2.75-.891.75-.604 1.32-1.437 1.7-2.5.4-1.073.6-2.307.6-3.703 0-1.385-.2-2.604-.58-3.656-.39-1.052-.96-1.875-1.71-2.469-.75-.594-1.67-.891-2.76-.891-1.08 0-2 .287-2.75.86-.74.573-1.31 1.385-1.7 2.437-.4 1.052-.6 2.292-.6 3.719Zm53.89-12-8.39 24h-7.5l-8.39-24h7.03l4.98 17.172h.25l4.97-17.172h7.05Zm3.4 24v-24h6.66v24h-6.66Zm3.35-27.094c-.99 0-1.84-.328-2.55-.984-.7-.667-1.05-1.464-1.05-2.391 0-.916.35-1.703 1.05-2.359.71-.667 1.56-1 2.55-1 .99 0 1.83.333 2.53 1 .71.656 1.06 1.443 1.06 2.359 0 .927-.35 1.724-1.06 2.391-.7.656-1.54.984-2.53.984Zm28.61 9.938-6.09.375c-.11-.521-.33-.99-.67-1.407-.35-.427-.8-.765-1.36-1.015-.56-.261-1.22-.391-1.99-.391-1.03 0-1.9.219-2.61.656-.71.428-1.06 1-1.06 1.719 0 .573.23 1.058.69 1.453.46.396 1.24.714 2.36.953l4.34.875c2.33.48 4.07 1.25 5.22 2.313 1.15 1.062 1.72 2.458 1.72 4.187 0 1.573-.46 2.954-1.39 4.141-.92 1.188-2.18 2.115-3.78 2.781-1.6.657-3.44.985-5.52.985-3.18 0-5.71-.662-7.59-1.985-1.88-1.333-2.98-3.145-3.3-5.437l6.55-.344c.2.969.67 1.708 1.44 2.219.76.5 1.73.75 2.92.75 1.16 0 2.1-.224 2.81-.672.72-.458 1.08-1.047 1.09-1.766-.01-.604-.26-1.099-.76-1.484-.5-.396-1.27-.698-2.31-.906l-4.16-.828c-2.34-.469-4.09-1.282-5.24-2.438-1.13-1.156-1.7-2.63-1.7-4.422 0-1.541.42-2.87 1.25-3.984.85-1.115 2.03-1.974 3.55-2.578 1.53-.604 3.32-.906 5.37-.906 3.03 0 5.42.64 7.16 1.921 1.75 1.282 2.77 3.026 3.06 5.235Zm20.13 6.937V259h6.66v24h-6.39v-4.359h-.25a7.15 7.15 0 0 1-2.71 3.39c-1.25.854-2.77 1.282-4.57 1.282-1.61 0-3.02-.365-4.24-1.094-1.22-.729-2.17-1.766-2.86-3.11-.68-1.343-1.02-2.953-1.03-4.828V259h6.66v14.094c.01 1.416.39 2.536 1.14 3.359.75.823 1.75 1.234 3.01 1.234.8 0 1.55-.182 2.25-.546.7-.375 1.26-.927 1.69-1.657.44-.729.65-1.63.64-2.703Zm18.83 10.672c-1.54 0-2.9-.265-4.1-.797-1.2-.541-2.14-1.338-2.84-2.39-.69-1.063-1.03-2.386-1.03-3.969 0-1.333.24-2.453.73-3.36a5.982 5.982 0 0 1 2-2.187c.84-.552 1.8-.969 2.88-1.25 1.08-.281 2.21-.479 3.4-.594 1.4-.146 2.52-.281 3.38-.406.85-.135 1.47-.333 1.86-.594.38-.26.57-.646.57-1.156v-.094c0-.989-.31-1.755-.93-2.297-.62-.541-1.49-.812-2.63-.812-1.2 0-2.15.265-2.86.797-.71.521-1.17 1.177-1.4 1.968l-6.16-.5c.31-1.458.93-2.718 1.84-3.781.92-1.073 2.1-1.896 3.55-2.469 1.46-.583 3.15-.874 5.06-.874 1.34 0 2.61.156 3.83.468 1.23.313 2.32.797 3.27 1.453.96.657 1.71 1.5 2.26 2.532.55 1.02.83 2.244.83 3.671V283h-6.31v-3.328h-.19c-.38.75-.9 1.411-1.55 1.984-.64.563-1.42 1.005-2.32 1.328-.91.313-1.96.469-3.14.469Zm1.9-4.594c.98 0 1.85-.192 2.59-.578.75-.396 1.34-.927 1.77-1.593.43-.667.64-1.422.64-2.266v-2.547c-.21.135-.49.26-.86.375-.35.104-.75.203-1.2.297-.45.083-.9.161-1.34.234-.45.063-.86.12-1.22.172-.78.115-1.47.297-2.05.547-.58.25-1.04.589-1.36 1.016-.32.416-.48.937-.48 1.562 0 .906.32 1.599.98 2.078.67.469 1.51.703 2.53.703ZM1209.46 251v32h-6.66v-32h6.66Z" />
  <rect width="790" height="72" x="512" y="333" fill="#fff" rx="16" />
  <rect width="790" height="72" x="512" y="333" stroke="#000" stroke-width="4" rx="16" />
  <path fill="#000"
    d="M553.636 364.281a5.734 5.734 0 0 0-.754-1.649 4.645 4.645 0 0 0-1.189-1.227 5.09 5.09 0 0 0-1.585-.78 6.699 6.699 0 0 0-1.956-.268c-1.338 0-2.514.332-3.528.997-1.006.664-1.79 1.632-2.353 2.902-.562 1.261-.843 2.804-.843 4.628 0 1.823.277 3.375.831 4.653.554 1.278 1.338 2.254 2.352 2.927 1.014.665 2.211.998 3.592.998 1.253 0 2.323-.222 3.209-.665.895-.452 1.577-1.087 2.045-1.905.478-.818.716-1.785.716-2.902l1.125.166h-6.75v-4.167h10.956v3.298c0 2.301-.486 4.278-1.457 5.932a9.93 9.93 0 0 1-4.014 3.809c-1.705.887-3.657 1.33-5.855 1.33-2.455 0-4.611-.541-6.469-1.624-1.858-1.091-3.307-2.637-4.347-4.64-1.031-2.012-1.547-4.398-1.547-7.159 0-2.123.307-4.015.921-5.676.622-1.671 1.491-3.086 2.608-4.245a11.263 11.263 0 0 1 3.899-2.646c1.483-.605 3.089-.908 4.819-.908 1.483 0 2.864.218 4.143.652a11.02 11.02 0 0 1 3.4 1.816 9.839 9.839 0 0 1 2.442 2.799 9.51 9.51 0 0 1 1.214 3.554h-5.625ZM563.56 382v-19.636h5.28v3.426h.204c.358-1.219.959-2.139 1.803-2.762.844-.63 1.815-.946 2.915-.946.272 0 .566.017.882.052.315.034.592.08.831.14v4.833a7.137 7.137 0 0 0-1.061-.205 9.482 9.482 0 0 0-1.24-.09c-.801 0-1.517.175-2.148.525a3.86 3.86 0 0 0-1.483 1.431c-.358.614-.537 1.321-.537 2.123V382h-5.446Zm19.767.371c-1.252 0-2.369-.218-3.349-.652-.98-.443-1.756-1.095-2.327-1.956-.562-.87-.843-1.952-.843-3.247 0-1.091.2-2.007.6-2.749a4.871 4.871 0 0 1 1.637-1.79 7.944 7.944 0 0 1 2.352-1.022 17.724 17.724 0 0 1 2.787-.486c1.142-.12 2.062-.23 2.761-.333.699-.11 1.206-.272 1.522-.485.315-.214.473-.529.473-.946v-.077c0-.81-.256-1.436-.767-1.879-.503-.444-1.219-.665-2.148-.665-.98 0-1.76.217-2.34.652-.579.426-.963.963-1.15 1.611l-5.037-.409c.256-1.194.758-2.225 1.508-3.094.75-.878 1.718-1.551 2.902-2.02 1.194-.477 2.574-.716 4.142-.716 1.091 0 2.135.128 3.133.383 1.005.256 1.896.652 2.671 1.189a5.79 5.79 0 0 1 1.854 2.071c.452.836.678 1.837.678 3.005V382h-5.165v-2.723h-.154a5.541 5.541 0 0 1-1.265 1.624 5.87 5.87 0 0 1-1.905 1.086c-.741.256-1.598.384-2.57.384Zm1.56-3.759c.801 0 1.509-.157 2.122-.473a3.759 3.759 0 0 0 1.445-1.304 3.363 3.363 0 0 0 .524-1.853v-2.084c-.17.111-.405.213-.703.307-.29.085-.618.166-.985.242-.366.069-.732.133-1.099.192l-.997.141a6.774 6.774 0 0 0-1.675.447c-.477.205-.848.482-1.112.831-.264.341-.396.767-.396 1.279 0 .741.268 1.308.805 1.7.546.383 1.236.575 2.071.575Zm13.724 10.752v-27h5.369v3.298h.243a7.231 7.231 0 0 1 1.036-1.611c.46-.554 1.056-1.014 1.789-1.381.742-.375 1.662-.562 2.762-.562 1.431 0 2.753.375 3.963 1.125 1.21.741 2.177 1.862 2.902 3.362.724 1.492 1.086 3.362 1.086 5.612 0 2.191-.353 4.04-1.061 5.549-.699 1.5-1.653 2.637-2.863 3.413-1.202.767-2.549 1.151-4.04 1.151-1.057 0-1.956-.175-2.698-.525-.733-.349-1.333-.788-1.802-1.316a6.669 6.669 0 0 1-1.074-1.624h-.166v10.509h-5.446Zm5.331-17.182c0 1.167.162 2.186.486 3.055.323.87.792 1.547 1.406 2.033.613.477 1.359.716 2.237.716.886 0 1.636-.243 2.25-.729.614-.494 1.078-1.176 1.393-2.045.324-.878.486-1.888.486-3.03 0-1.134-.157-2.131-.473-2.992-.315-.86-.78-1.534-1.393-2.02-.614-.485-1.368-.728-2.263-.728-.886 0-1.636.234-2.25.703-.605.469-1.07 1.133-1.393 1.994-.324.861-.486 1.875-.486 3.043Zm22.896-1.534V382h-5.446v-26.182h5.293v10.01h.23c.443-1.159 1.159-2.067 2.147-2.723.989-.665 2.229-.997 3.721-.997 1.363 0 2.552.298 3.566.895 1.023.588 1.816 1.436 2.378 2.544.571 1.099.853 2.416.844 3.95V382h-5.446v-11.531c.009-1.21-.298-2.152-.92-2.826-.614-.673-1.475-1.009-2.583-1.009-.741 0-1.398.157-1.969.473a3.353 3.353 0 0 0-1.329 1.38c-.315.597-.477 1.317-.486 2.161Zm34.3 11.736c-2.02 0-3.759-.41-5.216-1.228-1.449-.826-2.565-1.994-3.35-3.503-.784-1.517-1.176-3.311-1.176-5.382 0-2.02.392-3.792 1.176-5.318.785-1.525 1.888-2.714 3.312-3.567 1.431-.852 3.11-1.278 5.036-1.278 1.296 0 2.502.209 3.618.626a8.03 8.03 0 0 1 2.941 1.854c.843.827 1.5 1.867 1.968 3.119.469 1.245.704 2.702.704 4.373v1.495H653.57V370.2h11.454c0-.784-.17-1.478-.511-2.084a3.665 3.665 0 0 0-1.419-1.419c-.597-.349-1.291-.524-2.084-.524-.827 0-1.56.192-2.199.576a4.032 4.032 0 0 0-1.483 1.521 4.302 4.302 0 0 0-.55 2.109v3.209c0 .972.179 1.811.537 2.519a3.936 3.936 0 0 0 1.547 1.636c.665.383 1.453.575 2.365.575.605 0 1.159-.085 1.662-.256a3.44 3.44 0 0 0 1.291-.767c.358-.34.631-.758.819-1.252l5.037.332a6.876 6.876 0 0 1-1.573 3.17c-.784.895-1.798 1.594-3.043 2.097-1.235.494-2.663.742-4.282.742Zm16.766-20.02 3.605 6.865 3.695-6.865h5.586l-5.688 9.818 5.842 9.818h-5.561l-3.874-6.788L677.7 382h-5.625l5.829-9.818-5.625-9.818h5.625Zm16.121 27v-27h5.369v3.298h.243a7.231 7.231 0 0 1 1.036-1.611c.46-.554 1.056-1.014 1.789-1.381.742-.375 1.662-.562 2.762-.562a7.38 7.38 0 0 1 3.963 1.125c1.21.741 2.177 1.862 2.902 3.362.724 1.492 1.086 3.362 1.086 5.612 0 2.191-.353 4.04-1.061 5.549-.699 1.5-1.653 2.637-2.863 3.413-1.202.767-2.549 1.151-4.04 1.151-1.057 0-1.956-.175-2.698-.525-.732-.349-1.333-.788-1.802-1.316a6.669 6.669 0 0 1-1.074-1.624h-.166v10.509h-5.446Zm5.331-17.182c0 1.167.162 2.186.486 3.055.323.87.792 1.547 1.406 2.033.614.477 1.359.716 2.237.716.886 0 1.636-.243 2.25-.729.614-.494 1.078-1.176 1.394-2.045.323-.878.485-1.888.485-3.03 0-1.134-.157-2.131-.473-2.992-.315-.86-.779-1.534-1.393-2.02-.614-.485-1.368-.728-2.263-.728-.886 0-1.636.234-2.25.703-.605.469-1.07 1.133-1.393 1.994-.324.861-.486 1.875-.486 3.043Zm22.896-16.364V382h-5.446v-26.182h5.446Zm13.235 26.566c-1.986 0-3.703-.422-5.152-1.266-1.44-.852-2.553-2.037-3.337-3.554-.784-1.526-1.176-3.294-1.176-5.305 0-2.029.392-3.802 1.176-5.319.784-1.525 1.897-2.71 3.337-3.554 1.449-.852 3.166-1.278 5.152-1.278 1.986 0 3.699.426 5.139 1.278 1.449.844 2.565 2.029 3.349 3.554.785 1.517 1.177 3.29 1.177 5.319 0 2.011-.392 3.779-1.177 5.305-.784 1.517-1.9 2.702-3.349 3.554-1.44.844-3.153 1.266-5.139 1.266Zm.025-4.219c.904 0 1.658-.256 2.263-.767.605-.52 1.061-1.228 1.368-2.122.315-.895.473-1.914.473-3.056 0-1.142-.158-2.16-.473-3.055-.307-.895-.763-1.603-1.368-2.122-.605-.52-1.359-.78-2.263-.78-.912 0-1.679.26-2.301.78-.613.519-1.078 1.227-1.393 2.122-.307.895-.46 1.913-.46 3.055 0 1.142.153 2.161.46 3.056.315.894.78 1.602 1.393 2.122.622.511 1.389.767 2.301.767ZM748.693 382v-19.636h5.28v3.426h.204c.358-1.219.959-2.139 1.803-2.762.844-.63 1.815-.946 2.915-.946.272 0 .566.017.882.052.315.034.592.08.831.14v4.833a7.137 7.137 0 0 0-1.061-.205 9.496 9.496 0 0 0-1.241-.09c-.801 0-1.517.175-2.147.525a3.86 3.86 0 0 0-1.483 1.431c-.358.614-.537 1.321-.537 2.123V382h-5.446Zm22.765.384c-2.02 0-3.758-.41-5.216-1.228-1.449-.826-2.565-1.994-3.349-3.503-.784-1.517-1.176-3.311-1.176-5.382 0-2.02.392-3.792 1.176-5.318.784-1.525 1.888-2.714 3.311-3.567 1.432-.852 3.111-1.278 5.037-1.278 1.295 0 2.501.209 3.618.626a8.018 8.018 0 0 1 2.94 1.854c.844.827 1.5 1.867 1.969 3.119.469 1.245.703 2.702.703 4.373v1.495H763.89V370.2h11.454c0-.784-.17-1.478-.511-2.084a3.665 3.665 0 0 0-1.419-1.419c-.597-.349-1.291-.524-2.084-.524-.826 0-1.559.192-2.199.576a4.04 4.04 0 0 0-1.483 1.521 4.29 4.29 0 0 0-.549 2.109v3.209c0 .972.179 1.811.537 2.519a3.93 3.93 0 0 0 1.547 1.636c.664.383 1.453.575 2.365.575.605 0 1.159-.085 1.662-.256.502-.17.933-.426 1.291-.767.358-.34.63-.758.818-1.252l5.037.332a6.876 6.876 0 0 1-1.573 3.17c-.784.895-1.798 1.594-3.042 2.097-1.236.494-2.664.742-4.283.742Zm12.567-.384v-19.636h5.28v3.426h.204c.358-1.219.959-2.139 1.803-2.762.844-.63 1.815-.946 2.915-.946.272 0 .566.017.882.052.315.034.592.08.831.14v4.833a7.137 7.137 0 0 0-1.061-.205 9.496 9.496 0 0 0-1.241-.09c-.801 0-1.517.175-2.147.525a3.86 3.86 0 0 0-1.483 1.431c-.358.614-.537 1.321-.537 2.123V382h-5.446Zm33.622-19.636v4.091h-12.119v-4.091h12.119ZM808.302 382v-21.055c0-1.424.277-2.604.831-3.542a5.337 5.337 0 0 1 2.301-2.109c.972-.469 2.075-.703 3.311-.703.835 0 1.598.064 2.288.192.699.128 1.219.243 1.56.345l-.972 4.091a6.91 6.91 0 0 0-.792-.192 4.918 4.918 0 0 0-.946-.089c-.801 0-1.36.187-1.675.562-.315.366-.473.882-.473 1.547V382h-5.433Zm20.841.384c-1.986 0-3.703-.422-5.152-1.266-1.44-.852-2.552-2.037-3.337-3.554-.784-1.526-1.176-3.294-1.176-5.305 0-2.029.392-3.802 1.176-5.319.785-1.525 1.897-2.71 3.337-3.554 1.449-.852 3.166-1.278 5.152-1.278 1.986 0 3.699.426 5.139 1.278 1.449.844 2.566 2.029 3.35 3.554.784 1.517 1.176 3.29 1.176 5.319 0 2.011-.392 3.779-1.176 5.305a8.634 8.634 0 0 1-3.35 3.554c-1.44.844-3.153 1.266-5.139 1.266Zm.026-4.219c.903 0 1.657-.256 2.262-.767.606-.52 1.062-1.228 1.368-2.122.316-.895.473-1.914.473-3.056 0-1.142-.157-2.16-.473-3.055-.306-.895-.762-1.603-1.368-2.122-.605-.52-1.359-.78-2.262-.78-.912 0-1.679.26-2.301.78-.614.519-1.079 1.227-1.394 2.122-.307.895-.46 1.913-.46 3.055 0 1.142.153 2.161.46 3.056.315.894.78 1.602 1.394 2.122.622.511 1.389.767 2.301.767Zm13.18 3.835v-19.636h5.28v3.426h.204c.358-1.219.959-2.139 1.803-2.762.844-.63 1.815-.946 2.915-.946.273 0 .567.017.882.052.315.034.592.08.831.14v4.833a7.137 7.137 0 0 0-1.061-.205 9.482 9.482 0 0 0-1.24-.09c-.801 0-1.517.175-2.148.525a3.867 3.867 0 0 0-1.483 1.431c-.358.614-.537 1.321-.537 2.123V382h-5.446Zm45.064-26.182V382h-4.781l-11.391-16.479h-.192V382h-5.535v-26.182h4.858l11.301 16.466h.23v-16.466h5.51ZM891.884 382v-19.636h5.446V382h-5.446Zm2.736-22.168c-.81 0-1.504-.268-2.084-.805-.571-.545-.856-1.197-.856-1.956 0-.75.285-1.393.856-1.93a2.933 2.933 0 0 1 2.084-.819c.81 0 1.5.273 2.071.819.58.537.869 1.18.869 1.93 0 .759-.289 1.411-.869 1.956-.571.537-1.261.805-2.071.805ZM901.693 382v-19.636h5.19v3.464h.23c.409-1.15 1.091-2.058 2.046-2.723.954-.665 2.096-.997 3.426-.997 1.346 0 2.493.337 3.439 1.01.946.665 1.576 1.568 1.892 2.71h.204c.401-1.125 1.125-2.024 2.174-2.697 1.056-.682 2.305-1.023 3.745-1.023 1.833 0 3.32.584 4.462 1.751 1.151 1.159 1.726 2.804 1.726 4.935V382h-5.433v-12.132c0-1.091-.29-1.909-.87-2.455-.579-.545-1.304-.818-2.173-.818-.989 0-1.76.316-2.314.946-.554.622-.831 1.445-.831 2.468V382h-5.28v-12.247c0-.963-.277-1.73-.831-2.301-.545-.571-1.265-.857-2.16-.857-.605 0-1.151.154-1.636.46a3.163 3.163 0 0 0-1.138 1.266c-.282.537-.422 1.168-.422 1.892V382h-5.446Zm32.836 0v-19.636h5.446V382h-5.446Zm2.736-22.168c-.81 0-1.505-.268-2.084-.805-.571-.545-.857-1.197-.857-1.956 0-.75.286-1.393.857-1.93a2.931 2.931 0 0 1 2.084-.819c.809 0 1.5.273 2.071.819.579.537.869 1.18.869 1.93 0 .759-.29 1.411-.869 1.956-.571.537-1.262.805-2.071.805Zm20.048 29.532v-10.509h-.166a7.015 7.015 0 0 1-1.087 1.624c-.46.528-1.061.967-1.802 1.316-.733.35-1.628.525-2.685.525-1.491 0-2.842-.384-4.052-1.151-1.202-.776-2.157-1.913-2.864-3.413-.699-1.509-1.048-3.358-1.048-5.549 0-2.25.362-4.12 1.086-5.612.725-1.5 1.688-2.621 2.89-3.362a7.4 7.4 0 0 1 3.975-1.125c1.1 0 2.016.187 2.749.562.741.367 1.338.827 1.79 1.381.46.546.809 1.083 1.048 1.611h.23v-3.298h5.369v27h-5.433Zm-4.014-11.378c.878 0 1.619-.239 2.224-.716.614-.486 1.083-1.163 1.407-2.033.332-.869.498-1.888.498-3.055 0-1.168-.162-2.182-.486-3.043-.323-.861-.792-1.525-1.406-1.994-.613-.469-1.359-.703-2.237-.703-.895 0-1.649.243-2.263.728-.613.486-1.078 1.16-1.393 2.02-.316.861-.473 1.858-.473 2.992 0 1.142.157 2.152.473 3.03.324.869.788 1.551 1.393 2.045.614.486 1.368.729 2.263.729Zm32.596-15.622v4.091H974.07v-4.091h11.825Zm-9.14-4.705h5.446v18.307c0 .503.076.895.23 1.176.153.273.366.465.639.575.281.111.605.167.972.167.255 0 .511-.022.767-.064.255-.052.451-.09.588-.115l.856 4.052c-.273.085-.656.183-1.15.294-.495.119-1.096.192-1.803.217-1.312.052-2.463-.123-3.452-.524-.98-.4-1.743-1.022-2.288-1.866-.545-.844-.814-1.909-.805-3.196v-19.023ZM989.443 382v-19.636h5.28v3.426h.204c.358-1.219.959-2.139 1.803-2.762.844-.63 1.815-.946 2.915-.946a8.147 8.147 0 0 1 1.715.192v4.833a7.254 7.254 0 0 0-1.06-.205 9.576 9.576 0 0 0-1.244-.09c-.801 0-1.517.175-2.147.525a3.86 3.86 0 0 0-1.483 1.431c-.358.614-.537 1.321-.537 2.123V382h-5.446Zm19.767.371c-1.25 0-2.37-.218-3.35-.652a5.451 5.451 0 0 1-2.33-1.956c-.56-.87-.84-1.952-.84-3.247 0-1.091.2-2.007.6-2.749a4.88 4.88 0 0 1 1.64-1.79 7.909 7.909 0 0 1 2.35-1.022c.89-.231 1.82-.393 2.79-.486 1.14-.12 2.06-.23 2.76-.333.7-.11 1.2-.272 1.52-.485.31-.214.47-.529.47-.946v-.077c0-.81-.25-1.436-.76-1.879-.51-.444-1.22-.665-2.15-.665-.98 0-1.76.217-2.34.652-.58.426-.96.963-1.15 1.611l-5.04-.409c.26-1.194.76-2.225 1.51-3.094.75-.878 1.72-1.551 2.9-2.02 1.19-.477 2.58-.716 4.14-.716 1.09 0 2.14.128 3.14.383 1 .256 1.89.652 2.67 1.189s1.4 1.228 1.85 2.071c.45.836.68 1.837.68 3.005V382h-5.17v-2.723h-.15a5.609 5.609 0 0 1-1.27 1.624c-.52.46-1.16.822-1.9 1.086-.74.256-1.6.384-2.57.384Zm1.56-3.759c.8 0 1.51-.157 2.12-.473.62-.324 1.1-.758 1.45-1.304.35-.545.52-1.163.52-1.853v-2.084c-.17.111-.4.213-.7.307-.29.085-.62.166-.99.242-.36.069-.73.133-1.1.192l-.99.141a6.84 6.84 0 0 0-1.68.447c-.48.205-.85.482-1.11.831-.26.341-.4.767-.4 1.279 0 .741.27 1.308.81 1.7.54.383 1.23.575 2.07.575Zm19.17-7.964V382h-5.45v-19.636h5.19v3.464h.23a5.53 5.53 0 0 1 2.19-2.71c1.02-.673 2.26-1.01 3.72-1.01 1.36 0 2.55.298 3.57.895 1.01.596 1.8 1.449 2.36 2.557.56 1.099.85 2.412.85 3.937V382h-5.45v-11.531c.01-1.202-.3-2.139-.92-2.813-.62-.682-1.48-1.022-2.57-1.022-.73 0-1.38.157-1.94.473-.56.315-.99.775-1.31 1.38-.3.597-.46 1.317-.47 2.161Zm33.29-2.685-4.99.307a2.54 2.54 0 0 0-.55-1.151 2.911 2.911 0 0 0-1.11-.831c-.45-.213-.99-.319-1.63-.319-.84 0-1.55.179-2.13.537-.58.349-.87.818-.87 1.406 0 .469.19.865.56 1.189.38.324 1.02.584 1.93.78l3.56.716c1.91.392 3.33 1.022 4.27 1.892.93.869 1.4 2.011 1.4 3.426 0 1.287-.38 2.416-1.13 3.388-.75.971-1.79 1.73-3.1 2.275-1.3.537-2.81.806-4.51.806-2.6 0-4.67-.542-6.21-1.624-1.54-1.091-2.44-2.574-2.7-4.449l5.36-.281c.16.792.55 1.398 1.17 1.815.62.409 1.42.614 2.39.614.96 0 1.72-.183 2.3-.55.59-.375.89-.856.9-1.445-.01-.494-.22-.899-.63-1.214-.41-.324-1.04-.571-1.89-.741l-3.4-.678c-1.92-.384-3.35-1.048-4.28-1.994-.93-.946-1.4-2.152-1.4-3.618 0-1.262.34-2.348 1.03-3.26.69-.912 1.65-1.615 2.9-2.11 1.25-.494 2.72-.741 4.4-.741 2.48 0 4.43.524 5.85 1.572 1.43 1.049 2.27 2.476 2.51 4.283Zm9.47 14.408c-1.25 0-2.37-.218-3.35-.652a5.366 5.366 0 0 1-2.32-1.956c-.57-.87-.85-1.952-.85-3.247 0-1.091.2-2.007.6-2.749a4.88 4.88 0 0 1 1.64-1.79 7.909 7.909 0 0 1 2.35-1.022c.89-.231 1.82-.393 2.79-.486 1.14-.12 2.06-.23 2.76-.333.7-.11 1.21-.272 1.52-.485.32-.214.47-.529.47-.946v-.077c0-.81-.25-1.436-.76-1.879-.51-.444-1.22-.665-2.15-.665-.98 0-1.76.217-2.34.652-.58.426-.96.963-1.15 1.611l-5.04-.409c.26-1.194.76-2.225 1.51-3.094.75-.878 1.72-1.551 2.9-2.02 1.2-.477 2.58-.716 4.15-.716 1.09 0 2.13.128 3.13.383 1 .256 1.89.652 2.67 1.189s1.4 1.228 1.85 2.071c.45.836.68 1.837.68 3.005V382h-5.16v-2.723h-.16a5.41 5.41 0 0 1-1.26 1.624c-.53.46-1.17.822-1.91 1.086-.74.256-1.6.384-2.57.384Zm1.56-3.759c.8 0 1.51-.157 2.12-.473.62-.324 1.1-.758 1.45-1.304.35-.545.52-1.163.52-1.853v-2.084c-.17.111-.4.213-.7.307-.29.085-.62.166-.98.242-.37.069-.74.133-1.1.192-.37.051-.7.098-1 .141a6.84 6.84 0 0 0-1.68.447c-.47.205-.84.482-1.11.831-.26.341-.39.767-.39 1.279 0 .741.26 1.308.8 1.7.55.383 1.24.575 2.07.575Zm22.6 3.772c-2.01 0-3.74-.427-5.19-1.279-1.44-.861-2.55-2.054-3.33-3.579-.76-1.526-1.15-3.282-1.15-5.267 0-2.012.39-3.776 1.17-5.293.78-1.526 1.89-2.715 3.33-3.567 1.44-.861 3.16-1.291 5.14-1.291 1.72 0 3.22.311 4.5.933 1.29.622 2.31 1.496 3.06 2.621s1.16 2.446 1.24 3.963h-5.14c-.15-.98-.53-1.768-1.15-2.365-.62-.605-1.42-.908-2.42-.908-.84 0-1.58.23-2.21.691-.62.451-1.11 1.112-1.46 1.981-.35.869-.52 1.922-.52 3.158 0 1.253.17 2.318.51 3.196.35.878.84 1.547 1.47 2.007.63.46 1.37.69 2.21.69.62 0 1.18-.128 1.68-.383.5-.256.91-.627 1.24-1.112.33-.495.55-1.087.65-1.777h5.14c-.09 1.5-.5 2.821-1.23 3.963-.72 1.133-1.73 2.02-3 2.659-1.28.639-2.79.959-4.54.959Zm22.7-20.02v4.091h-11.83v-4.091h11.83Zm-9.14-4.705h5.44v18.307c0 .503.08.895.23 1.176.16.273.37.465.64.575.29.111.61.167.98.167.25 0 .51-.022.76-.064.26-.052.45-.09.59-.115l.86 4.052c-.28.085-.66.183-1.15.294-.5.119-1.1.192-1.81.217-1.31.052-2.46-.123-3.45-.524-.98-.4-1.74-1.022-2.29-1.866-.54-.844-.81-1.909-.8-3.196v-19.023ZM1123.11 382v-19.636h5.44V382h-5.44Zm2.73-22.168c-.81 0-1.5-.268-2.08-.805-.57-.545-.86-1.197-.86-1.956 0-.75.29-1.393.86-1.93a2.923 2.923 0 0 1 2.08-.819c.81 0 1.5.273 2.07.819.58.537.87 1.18.87 1.93 0 .759-.29 1.411-.87 1.956-.57.537-1.26.805-2.07.805Zm15.95 22.552c-1.99 0-3.71-.422-5.15-1.266a8.643 8.643 0 0 1-3.34-3.554c-.79-1.526-1.18-3.294-1.18-5.305 0-2.029.39-3.802 1.18-5.319a8.547 8.547 0 0 1 3.34-3.554c1.44-.852 3.16-1.278 5.15-1.278 1.98 0 3.7.426 5.14 1.278 1.45.844 2.56 2.029 3.35 3.554.78 1.517 1.17 3.29 1.17 5.319 0 2.011-.39 3.779-1.17 5.305-.79 1.517-1.9 2.702-3.35 3.554-1.44.844-3.16 1.266-5.14 1.266Zm.02-4.219c.91 0 1.66-.256 2.27-.767.6-.52 1.06-1.228 1.36-2.122.32-.895.48-1.914.48-3.056 0-1.142-.16-2.16-.48-3.055-.3-.895-.76-1.603-1.36-2.122-.61-.52-1.36-.78-2.27-.78-.91 0-1.68.26-2.3.78-.61.519-1.08 1.227-1.39 2.122-.31.895-.46 1.913-.46 3.055 0 1.142.15 2.161.46 3.056.31.894.78 1.602 1.39 2.122.62.511 1.39.767 2.3.767Zm18.63-7.517V382h-5.45v-19.636h5.19v3.464h.23a5.53 5.53 0 0 1 2.19-2.71c1.02-.673 2.26-1.01 3.72-1.01 1.36 0 2.55.298 3.57.895 1.01.596 1.8 1.449 2.36 2.557.56 1.099.85 2.412.85 3.937V382h-5.45v-11.531c.01-1.202-.3-2.139-.92-2.813-.62-.682-1.48-1.022-2.57-1.022-.73 0-1.38.157-1.94.473-.56.315-.99.775-1.31 1.38-.3.597-.46 1.317-.47 2.161Zm35.84-8.284v4.091h-12.12v-4.091h12.12ZM1186.93 382v-21.055c0-1.424.28-2.604.84-3.542a5.335 5.335 0 0 1 2.3-2.109c.97-.469 2.07-.703 3.31-.703.83 0 1.6.064 2.29.192.7.128 1.21.243 1.56.345l-.98 4.091a6.473 6.473 0 0 0-.79-.192 4.91 4.91 0 0 0-.94-.089c-.81 0-1.36.187-1.68.562-.31.366-.47.882-.47 1.547V382h-5.44Zm18.12-26.182V382h-5.44v-26.182h5.44Zm13.24 26.566c-1.99 0-3.71-.422-5.15-1.266a8.643 8.643 0 0 1-3.34-3.554c-.79-1.526-1.18-3.294-1.18-5.305 0-2.029.39-3.802 1.18-5.319a8.547 8.547 0 0 1 3.34-3.554c1.44-.852 3.16-1.278 5.15-1.278 1.98 0 3.7.426 5.14 1.278 1.45.844 2.56 2.029 3.35 3.554.78 1.517 1.17 3.29 1.17 5.319 0 2.011-.39 3.779-1.17 5.305-.79 1.517-1.9 2.702-3.35 3.554-1.44.844-3.16 1.266-5.14 1.266Zm.02-4.219c.91 0 1.66-.256 2.27-.767.6-.52 1.06-1.228 1.36-2.122.32-.895.48-1.914.48-3.056 0-1.142-.16-2.16-.48-3.055-.3-.895-.76-1.603-1.36-2.122-.61-.52-1.36-.78-2.27-.78-.91 0-1.68.26-2.3.78-.61.519-1.08 1.227-1.39 2.122-.31.895-.46 1.913-.46 3.055 0 1.142.15 2.161.46 3.056.31.894.78 1.602 1.39 2.122.62.511 1.39.767 2.3.767Zm16.57 3.835-5.35-19.636h5.51l3.04 13.193h.18l3.17-13.193h5.41l3.22 13.116h.17l2.99-13.116h5.5L1253.39 382h-5.77l-3.37-12.349h-.25L1240.63 382h-5.75Zm43.08-14.037-4.99.307c-.08-.426-.26-.81-.54-1.151a3.027 3.027 0 0 0-1.12-.831c-.45-.213-.99-.319-1.62-.319-.84 0-1.56.179-2.14.537-.58.349-.86.818-.86 1.406 0 .469.18.865.56 1.189.37.324 1.02.584 1.93.78l3.55.716c1.91.392 3.33 1.022 4.27 1.892.94.869 1.41 2.011 1.41 3.426 0 1.287-.38 2.416-1.14 3.388-.75.971-1.78 1.73-3.09 2.275-1.31.537-2.81.806-4.52.806-2.6 0-4.67-.542-6.21-1.624-1.53-1.091-2.43-2.574-2.7-4.449l5.36-.281c.16.792.55 1.398 1.18 1.815.62.409 1.41.614 2.39.614.95 0 1.72-.183 2.3-.55.59-.375.88-.856.89-1.445a1.497 1.497 0 0 0-.62-1.214c-.41-.324-1.04-.571-1.9-.741l-3.4-.678c-1.91-.384-3.34-1.048-4.28-1.994-.93-.946-1.39-2.152-1.39-3.618 0-1.262.34-2.348 1.02-3.26.69-.912 1.66-1.615 2.9-2.11 1.25-.494 2.72-.741 4.4-.741 2.48 0 4.43.524 5.85 1.572 1.44 1.049 2.27 2.476 2.51 4.283Z" />
  <defs>
    <linearGradient id="a" x1="-6.127" x2="1622.2" y1="-6.4" y2="508.893" gradientUnits="userSpaceOnUse">
      <stop stop-color="#FFF7FC" />
      <stop offset=".4" stop-color="#FFF2D9" />
      <stop offset="1" stop-color="#ECECFF" />
    </linearGradient>
    <linearGradient id="b" x1="216" x2="516" y1="186" y2="526" gradientUnits="userSpaceOnUse">
      <stop stop-color="#FF90E8" />
      <stop offset=".52" stop-color="#FFC900" />
      <stop offset="1" stop-color="#8B8BF5" />
    </linearGradient>
  </defs>
</svg>